# xmcd
#
# Track frame offsets: 
#        150
#        11350
#        25060
#        40817
#        51342
#        65280
#        78200
#        92245
#        108450
#        118760
#        131757
#        148007
#        165695
#        177757
#        191790
#        204727
#        226517
#        242597
#        258490
#
# Disc length: 3733 seconds
#
# Revision: 1
# Processed by: cddbd v1.5.2PL0 Copyright (c) Steve Scherf et al.
# Submitted via: ExactAudioCopy v0.90b4
#
DISCID=000e9313
DTITLE=Willie Nelson - The Greatest Hits [CD1]
DYEAR=1995
DGENRE=Country
TTITLE0=On The Road Again
TTITLE1=Once You're Past The Blues
TTITLE2=Mammas Don't Let Your Babies Grow Up To Be Cowboys
TTITLE3=Blue Eyes Crying In The Rain
TTITLE4=My Heros Have Always Been Cowboys
TTITLE5=Me And Paul
TTITLE6=Old Friends
TTITLE7=Blue Skies
TTITLE8=What A Wonderful World
TTITLE9=Twilight Time
TTITLE10=Spanish Eyes
TTITLE11=All Of Me
TTITLE12=Ten With A Two
TTITLE13=Songwriter
TTITLE14=Turn Me Loose And Let Me Swing
TTITLE15=City Of New Orleans
TTITLE16=To All The Girls I've Loved Before (with Julio Iglesias)
TTITLE17=Always On My Mind
TTITLE18=Pancho And Lefty
EXTD=
EXTT0=
EXTT1=
EXTT2=
EXTT3=
EXTT4=
EXTT5=
EXTT6=
EXTT7=
EXTT8=
EXTT9=
EXTT10=
EXTT11=
EXTT12=
EXTT13=
EXTT14=
EXTT15=
EXTT16=
EXTT17=
EXTT18=
PLAYORDER=
